<?xml version="1.0" encoding="utf-8" standalone="no"?>
<!DOCTYPE svg PUBLIC "-//W3C//DTD SVG 1.1//EN"
  "http://www.w3.org/Graphics/SVG/1.1/DTD/svg11.dtd">
<!-- Created with matplotlib (http://matplotlib.sourceforge.net/) -->
<svg height="432pt" version="1.1" viewBox="0 0 432 432" width="432pt" xmlns="http://www.w3.org/2000/svg" xmlns:xlink="http://www.w3.org/1999/xlink">
 <defs>
  <style type="text/css">
*{stroke-linecap:square;stroke-linejoin:round;}
  </style>
 </defs>
 <g id="figure_1">
  <g id="patch_1">
   <path d="
M0 432
L432 432
L432 0
L0 0
z
" style="fill:#ffffff;"/>
  </g>
  <g id="axes_1">
   <g id="patch_2">
    <path d="
M54 378
L388.8 378
L388.8 43.2
L54 43.2
z
" style="fill:#ffffff;"/>
   </g>
   <g id="line2d_1">
    <path clip-path="url(#p7b0b5c6bc8)" d="
M54 -79.4517
M60.0144 -1
L60.7636 8.19495
L64.1455 45.4656
L67.5273 78.8706
L70.9091 108.748
L74.2909 135.41
L77.6727 159.14
L81.0545 180.201
L84.4364 198.833
L87.8182 215.255
L91.2 229.669
L94.5818 242.26
L97.9636 253.198
L101.345 262.638
L104.727 270.722
L108.109 277.579
L111.491 283.328
L114.873 288.079
L118.255 291.931
L121.636 294.974
L125.018 297.292
L128.4 298.96
L131.782 300.047
L135.164 300.617
L138.545 300.725
L141.927 300.426
L145.309 299.766
L148.691 298.789
L152.073 297.533
L155.455 296.034
L158.836 294.326
L162.218 292.436
L165.6 290.391
L168.982 288.216
L172.364 285.932
L175.745 283.558
L179.127 281.113
L182.509 278.611
L185.891 276.066
L189.273 273.492
L192.655 270.9
L196.036 268.3
L199.418 265.7
L202.8 263.109
L206.182 260.534
L209.564 257.98
L212.945 255.454
L216.327 252.959
L219.709 250.5
L223.091 248.081
L226.473 245.703
L229.855 243.371
L233.236 241.085
L236.618 238.847
L240 236.66
L243.382 234.523
L246.764 232.438
L250.145 230.405
L253.527 228.424
L256.909 226.496
L260.291 224.621
L263.673 222.798
L267.055 221.026
L270.436 219.306
L273.818 217.637
L277.2 216.018
L280.582 214.449
L283.964 212.928
L287.345 211.454
L290.727 210.028
L294.109 208.647
L297.491 207.312
L300.873 206.02
L304.255 204.77
L307.636 203.563
L311.018 202.396
L314.4 201.269
L317.782 200.181
L321.164 199.13
L324.545 198.116
L327.927 197.137
L331.309 196.192
L334.691 195.281
L338.073 194.402
L341.455 193.554
L344.836 192.737
L348.218 191.95
L351.6 191.19
L354.982 190.459
L358.364 189.754
L361.745 189.075
L365.127 188.421
L368.509 187.791
L371.891 187.184
L375.273 186.599
L378.655 186.037
L382.036 185.495
L385.418 184.974
L388.8 184.472" style="fill:none;stroke:#0000ff;"/>
   </g>
   <g id="line2d_2">
    <path clip-path="url(#p7b0b5c6bc8)" d="
M54 -902.166
M93.6978 -1
L94.5818 10.2292
L97.9636 49.176
L101.345 84.45
L104.727 116.362
L108.109 145.198
L111.491 171.221
L114.873 194.671
L118.255 215.77
L121.636 234.722
L125.018 251.714
L128.4 266.916
L131.782 280.487
L135.164 292.571
L138.545 303.301
L141.927 312.798
L145.309 321.174
L148.691 328.53
L152.073 334.962
L155.455 340.554
L158.836 345.386
L162.218 349.528
L165.6 353.048
L168.982 356.005
L172.364 358.455
L175.745 360.448
L179.127 362.029
L182.509 363.242
L185.891 364.124
L189.273 364.711
L192.655 365.034
L196.036 365.122
L199.418 365.003
L202.8 364.699
L206.182 364.234
L209.564 363.626
L212.945 362.895
L216.327 362.056
L219.709 361.124
L223.091 360.113
L226.473 359.035
L229.855 357.901
L233.236 356.72
L236.618 355.502
L240 354.255
L243.382 352.986
L246.764 351.701
L250.145 350.406
L253.527 349.106
L256.909 347.806
L260.291 346.509
L263.673 345.22
L267.055 343.942
L270.436 342.676
L273.818 341.426
L277.2 340.194
L280.582 338.981
L283.964 337.789
L287.345 336.619
L290.727 335.472
L294.109 334.35
L297.491 333.252
L300.873 332.18
L304.255 331.133
L307.636 330.113
L311.018 329.118
L314.4 328.15
L317.782 327.208
L321.164 326.293
L324.545 325.403
L327.927 324.539
L331.309 323.7
L334.691 322.887
L338.073 322.099
L341.455 321.334
L344.836 320.594
L348.218 319.877
L351.6 319.183
L354.982 318.512
L358.364 317.863
L361.745 317.235
L365.127 316.628
L368.509 316.041
L371.891 315.475
L375.273 314.928
L378.655 314.399
L382.036 313.889
L385.418 313.397
L388.8 312.922" style="fill:none;stroke:#008000;"/>
   </g>
   <g id="matplotlib.axis_1">
    <g id="xtick_1">
     <g id="line2d_3">
      <defs>
       <path d="
M0 0
L0 -4" id="m0012dd4eef" style="stroke:#000000;stroke-linecap:butt;stroke-width:0.5;"/>
      </defs>
      <g>
       <use style="stroke:#000000;stroke-linecap:butt;stroke-width:0.5;" x="54.0" xlink:href="#m0012dd4eef" y="300.738461538"/>
      </g>
     </g>
     <g id="text_1">
      <!-- 0.0 -->
      <defs>
       <path d="
M31.7812 66.4062
Q24.1719 66.4062 20.3281 58.9062
Q16.5 51.4219 16.5 36.375
Q16.5 21.3906 20.3281 13.8906
Q24.1719 6.39062 31.7812 6.39062
Q39.4531 6.39062 43.2812 13.8906
Q47.125 21.3906 47.125 36.375
Q47.125 51.4219 43.2812 58.9062
Q39.4531 66.4062 31.7812 66.4062
M31.7812 74.2188
Q44.0469 74.2188 50.5156 64.5156
Q56.9844 54.8281 56.9844 36.375
Q56.9844 17.9688 50.5156 8.26562
Q44.0469 -1.42188 31.7812 -1.42188
Q19.5312 -1.42188 13.0625 8.26562
Q6.59375 17.9688 6.59375 36.375
Q6.59375 54.8281 13.0625 64.5156
Q19.5312 74.2188 31.7812 74.2188" id="BitstreamVeraSans-Roman-30"/>
       <path d="
M10.6875 12.4062
L21 12.4062
L21 0
L10.6875 0
z
" id="BitstreamVeraSans-Roman-2e"/>
      </defs>
      <g transform="translate(46.71015625 312.160336538)scale(0.1 -0.1)">
       <use xlink:href="#BitstreamVeraSans-Roman-30"/>
       <use x="63.623046875" xlink:href="#BitstreamVeraSans-Roman-2e"/>
       <use x="95.41015625" xlink:href="#BitstreamVeraSans-Roman-30"/>
      </g>
     </g>
    </g>
    <g id="xtick_2">
     <g id="line2d_4">
      <g>
       <use style="stroke:#000000;stroke-linecap:butt;stroke-width:0.5;" x="95.85" xlink:href="#m0012dd4eef" y="300.738461538"/>
      </g>
     </g>
     <g id="text_2">
      <!-- 0.5 -->
      <defs>
       <path d="
M10.7969 72.9062
L49.5156 72.9062
L49.5156 64.5938
L19.8281 64.5938
L19.8281 46.7344
Q21.9688 47.4688 24.1094 47.8281
Q26.2656 48.1875 28.4219 48.1875
Q40.625 48.1875 47.75 41.5
Q54.8906 34.8125 54.8906 23.3906
Q54.8906 11.625 47.5625 5.09375
Q40.2344 -1.42188 26.9062 -1.42188
Q22.3125 -1.42188 17.5469 -0.640625
Q12.7969 0.140625 7.71875 1.70312
L7.71875 11.625
Q12.1094 9.23438 16.7969 8.0625
Q21.4844 6.89062 26.7031 6.89062
Q35.1562 6.89062 40.0781 11.3281
Q45.0156 15.7656 45.0156 23.3906
Q45.0156 31 40.0781 35.4375
Q35.1562 39.8906 26.7031 39.8906
Q22.75 39.8906 18.8125 39.0156
Q14.8906 38.1406 10.7969 36.2812
z
" id="BitstreamVeraSans-Roman-35"/>
      </defs>
      <g transform="translate(88.66484375 312.160336538)scale(0.1 -0.1)">
       <use xlink:href="#BitstreamVeraSans-Roman-30"/>
       <use x="63.623046875" xlink:href="#BitstreamVeraSans-Roman-2e"/>
       <use x="95.41015625" xlink:href="#BitstreamVeraSans-Roman-35"/>
      </g>
     </g>
    </g>
    <g id="xtick_3">
     <g id="line2d_5">
      <g>
       <use style="stroke:#000000;stroke-linecap:butt;stroke-width:0.5;" x="137.7" xlink:href="#m0012dd4eef" y="300.738461538"/>
      </g>
     </g>
     <g id="text_3">
      <!-- 1.0 -->
      <defs>
       <path d="
M12.4062 8.29688
L28.5156 8.29688
L28.5156 63.9219
L10.9844 60.4062
L10.9844 69.3906
L28.4219 72.9062
L38.2812 72.9062
L38.2812 8.29688
L54.3906 8.29688
L54.3906 0
L12.4062 0
z
" id="BitstreamVeraSans-Roman-31"/>
      </defs>
      <g transform="translate(130.6296875 312.160336538)scale(0.1 -0.1)">
       <use xlink:href="#BitstreamVeraSans-Roman-31"/>
       <use x="63.623046875" xlink:href="#BitstreamVeraSans-Roman-2e"/>
       <use x="95.41015625" xlink:href="#BitstreamVeraSans-Roman-30"/>
      </g>
     </g>
    </g>
    <g id="xtick_4">
     <g id="line2d_6">
      <g>
       <use style="stroke:#000000;stroke-linecap:butt;stroke-width:0.5;" x="179.55" xlink:href="#m0012dd4eef" y="300.738461538"/>
      </g>
     </g>
     <g id="text_4">
      <!-- 1.5 -->
      <g transform="translate(172.584375 312.029086538)scale(0.1 -0.1)">
       <use xlink:href="#BitstreamVeraSans-Roman-31"/>
       <use x="63.623046875" xlink:href="#BitstreamVeraSans-Roman-2e"/>
       <use x="95.41015625" xlink:href="#BitstreamVeraSans-Roman-35"/>
      </g>
     </g>
    </g>
    <g id="xtick_5">
     <g id="line2d_7">
      <g>
       <use style="stroke:#000000;stroke-linecap:butt;stroke-width:0.5;" x="221.4" xlink:href="#m0012dd4eef" y="300.738461538"/>
      </g>
     </g>
     <g id="text_5">
      <!-- 2.0 -->
      <defs>
       <path d="
M19.1875 8.29688
L53.6094 8.29688
L53.6094 0
L7.32812 0
L7.32812 8.29688
Q12.9375 14.1094 22.625 23.8906
Q32.3281 33.6875 34.8125 36.5312
Q39.5469 41.8438 41.4219 45.5312
Q43.3125 49.2188 43.3125 52.7812
Q43.3125 58.5938 39.2344 62.25
Q35.1562 65.9219 28.6094 65.9219
Q23.9688 65.9219 18.8125 64.3125
Q13.6719 62.7031 7.8125 59.4219
L7.8125 69.3906
Q13.7656 71.7812 18.9375 73
Q24.125 74.2188 28.4219 74.2188
Q39.75 74.2188 46.4844 68.5469
Q53.2188 62.8906 53.2188 53.4219
Q53.2188 48.9219 51.5312 44.8906
Q49.8594 40.875 45.4062 35.4062
Q44.1875 33.9844 37.6406 27.2188
Q31.1094 20.4531 19.1875 8.29688" id="BitstreamVeraSans-Roman-32"/>
      </defs>
      <g transform="translate(214.146875 312.160336538)scale(0.1 -0.1)">
       <use xlink:href="#BitstreamVeraSans-Roman-32"/>
       <use x="63.623046875" xlink:href="#BitstreamVeraSans-Roman-2e"/>
       <use x="95.41015625" xlink:href="#BitstreamVeraSans-Roman-30"/>
      </g>
     </g>
    </g>
    <g id="xtick_6">
     <g id="line2d_8">
      <g>
       <use style="stroke:#000000;stroke-linecap:butt;stroke-width:0.5;" x="263.25" xlink:href="#m0012dd4eef" y="300.738461538"/>
      </g>
     </g>
     <g id="text_6">
      <!-- 2.5 -->
      <g transform="translate(256.1015625 312.160336538)scale(0.1 -0.1)">
       <use xlink:href="#BitstreamVeraSans-Roman-32"/>
       <use x="63.623046875" xlink:href="#BitstreamVeraSans-Roman-2e"/>
       <use x="95.41015625" xlink:href="#BitstreamVeraSans-Roman-35"/>
      </g>
     </g>
    </g>
    <g id="xtick_7">
     <g id="line2d_9">
      <g>
       <use style="stroke:#000000;stroke-linecap:butt;stroke-width:0.5;" x="305.1" xlink:href="#m0012dd4eef" y="300.738461538"/>
      </g>
     </g>
     <g id="text_7">
      <!-- 3.0 -->
      <defs>
       <path d="
M40.5781 39.3125
Q47.6562 37.7969 51.625 33
Q55.6094 28.2188 55.6094 21.1875
Q55.6094 10.4062 48.1875 4.48438
Q40.7656 -1.42188 27.0938 -1.42188
Q22.5156 -1.42188 17.6562 -0.515625
Q12.7969 0.390625 7.625 2.20312
L7.625 11.7188
Q11.7188 9.32812 16.5938 8.10938
Q21.4844 6.89062 26.8125 6.89062
Q36.0781 6.89062 40.9375 10.5469
Q45.7969 14.2031 45.7969 21.1875
Q45.7969 27.6406 41.2812 31.2656
Q36.7656 34.9062 28.7188 34.9062
L20.2188 34.9062
L20.2188 43.0156
L29.1094 43.0156
Q36.375 43.0156 40.2344 45.9219
Q44.0938 48.8281 44.0938 54.2969
Q44.0938 59.9062 40.1094 62.9062
Q36.1406 65.9219 28.7188 65.9219
Q24.6562 65.9219 20.0156 65.0312
Q15.375 64.1562 9.8125 62.3125
L9.8125 71.0938
Q15.4375 72.6562 20.3438 73.4375
Q25.25 74.2188 29.5938 74.2188
Q40.8281 74.2188 47.3594 69.1094
Q53.9062 64.0156 53.9062 55.3281
Q53.9062 49.2656 50.4375 45.0938
Q46.9688 40.9219 40.5781 39.3125" id="BitstreamVeraSans-Roman-33"/>
      </defs>
      <g transform="translate(297.86171875 312.160336538)scale(0.1 -0.1)">
       <use xlink:href="#BitstreamVeraSans-Roman-33"/>
       <use x="63.623046875" xlink:href="#BitstreamVeraSans-Roman-2e"/>
       <use x="95.41015625" xlink:href="#BitstreamVeraSans-Roman-30"/>
      </g>
     </g>
    </g>
    <g id="xtick_8">
     <g id="line2d_10">
      <g>
       <use style="stroke:#000000;stroke-linecap:butt;stroke-width:0.5;" x="346.95" xlink:href="#m0012dd4eef" y="300.738461538"/>
      </g>
     </g>
     <g id="text_8">
      <!-- 3.5 -->
      <g transform="translate(339.81640625 312.160336538)scale(0.1 -0.1)">
       <use xlink:href="#BitstreamVeraSans-Roman-33"/>
       <use x="63.623046875" xlink:href="#BitstreamVeraSans-Roman-2e"/>
       <use x="95.41015625" xlink:href="#BitstreamVeraSans-Roman-35"/>
      </g>
     </g>
    </g>
    <g id="xtick_9">
     <g id="line2d_11">
      <g>
       <use style="stroke:#000000;stroke-linecap:butt;stroke-width:0.5;" x="388.8" xlink:href="#m0012dd4eef" y="300.738461538"/>
      </g>
     </g>
     <g id="text_9">
      <!-- 4.0 -->
      <defs>
       <path d="
M37.7969 64.3125
L12.8906 25.3906
L37.7969 25.3906
z

M35.2031 72.9062
L47.6094 72.9062
L47.6094 25.3906
L58.0156 25.3906
L58.0156 17.1875
L47.6094 17.1875
L47.6094 0
L37.7969 0
L37.7969 17.1875
L4.89062 17.1875
L4.89062 26.7031
z
" id="BitstreamVeraSans-Roman-34"/>
      </defs>
      <g transform="translate(381.425 312.160336538)scale(0.1 -0.1)">
       <use xlink:href="#BitstreamVeraSans-Roman-34"/>
       <use x="63.623046875" xlink:href="#BitstreamVeraSans-Roman-2e"/>
       <use x="95.41015625" xlink:href="#BitstreamVeraSans-Roman-30"/>
      </g>
     </g>
    </g>
    <g id="text_10">
     <!-- r -->
     <defs>
      <path d="
M41.1094 46.2969
Q39.5938 47.1719 37.8125 47.5781
Q36.0312 48 33.8906 48
Q26.2656 48 22.1875 43.0469
Q18.1094 38.0938 18.1094 28.8125
L18.1094 0
L9.07812 0
L9.07812 54.6875
L18.1094 54.6875
L18.1094 46.1875
Q20.9531 51.1719 25.4844 53.5781
Q30.0312 56 36.5312 56
Q37.4531 56 38.5781 55.875
Q39.7031 55.7656 41.0625 55.5156
z
" id="BitstreamVeraSans-Roman-72"/>
     </defs>
     <g transform="translate(219.7984375 322.902524038)scale(0.1 -0.1)">
      <use xlink:href="#BitstreamVeraSans-Roman-72"/>
     </g>
    </g>
   </g>
   <g id="matplotlib.axis_2">
    <g id="ytick_1">
     <g id="line2d_12">
      <defs>
       <path d="
M0 0
L4 0" id="me8a85f7bf6" style="stroke:#000000;stroke-linecap:butt;stroke-width:0.5;"/>
      </defs>
      <g>
       <use style="stroke:#000000;stroke-linecap:butt;stroke-width:0.5;" x="54.0" xlink:href="#me8a85f7bf6" y="365.123076923"/>
      </g>
     </g>
     <g id="text_11">
      <!-- −0.5 -->
      <defs>
       <path d="
M10.5938 35.5
L73.1875 35.5
L73.1875 27.2031
L10.5938 27.2031
z
" id="BitstreamVeraSans-Roman-2212"/>
      </defs>
      <g transform="translate(27.65 368.762920673)scale(0.1 -0.1)">
       <use xlink:href="#BitstreamVeraSans-Roman-2212"/>
       <use x="83.7890625" xlink:href="#BitstreamVeraSans-Roman-30"/>
       <use x="147.412109375" xlink:href="#BitstreamVeraSans-Roman-2e"/>
       <use x="179.19921875" xlink:href="#BitstreamVeraSans-Roman-35"/>
      </g>
     </g>
    </g>
    <g id="ytick_2">
     <g id="line2d_13">
      <g>
       <use style="stroke:#000000;stroke-linecap:butt;stroke-width:0.5;" x="54.0" xlink:href="#me8a85f7bf6" y="300.738461538"/>
      </g>
     </g>
     <g id="text_12">
      <!-- 0.0 -->
      <g transform="translate(35.4203125 304.378305288)scale(0.1 -0.1)">
       <use xlink:href="#BitstreamVeraSans-Roman-30"/>
       <use x="63.623046875" xlink:href="#BitstreamVeraSans-Roman-2e"/>
       <use x="95.41015625" xlink:href="#BitstreamVeraSans-Roman-30"/>
      </g>
     </g>
    </g>
    <g id="ytick_3">
     <g id="line2d_14">
      <g>
       <use style="stroke:#000000;stroke-linecap:butt;stroke-width:0.5;" x="54.0" xlink:href="#me8a85f7bf6" y="236.353846154"/>
      </g>
     </g>
     <g id="text_13">
      <!-- 0.5 -->
      <g transform="translate(35.6296875 239.993689904)scale(0.1 -0.1)">
       <use xlink:href="#BitstreamVeraSans-Roman-30"/>
       <use x="63.623046875" xlink:href="#BitstreamVeraSans-Roman-2e"/>
       <use x="95.41015625" xlink:href="#BitstreamVeraSans-Roman-35"/>
      </g>
     </g>
    </g>
    <g id="ytick_4">
     <g id="line2d_15">
      <g>
       <use style="stroke:#000000;stroke-linecap:butt;stroke-width:0.5;" x="54.0" xlink:href="#me8a85f7bf6" y="171.969230769"/>
      </g>
     </g>
     <g id="text_14">
      <!-- 1.0 -->
      <g transform="translate(35.859375 175.609074519)scale(0.1 -0.1)">
       <use xlink:href="#BitstreamVeraSans-Roman-31"/>
       <use x="63.623046875" xlink:href="#BitstreamVeraSans-Roman-2e"/>
       <use x="95.41015625" xlink:href="#BitstreamVeraSans-Roman-30"/>
      </g>
     </g>
    </g>
    <g id="ytick_5">
     <g id="line2d_16">
      <g>
       <use style="stroke:#000000;stroke-linecap:butt;stroke-width:0.5;" x="54.0" xlink:href="#me8a85f7bf6" y="107.584615385"/>
      </g>
     </g>
     <g id="text_15">
      <!-- 1.5 -->
      <g transform="translate(36.06875 111.158834135)scale(0.1 -0.1)">
       <use xlink:href="#BitstreamVeraSans-Roman-31"/>
       <use x="63.623046875" xlink:href="#BitstreamVeraSans-Roman-2e"/>
       <use x="95.41015625" xlink:href="#BitstreamVeraSans-Roman-35"/>
      </g>
     </g>
    </g>
    <g id="ytick_6">
     <g id="line2d_17">
      <g>
       <use style="stroke:#000000;stroke-linecap:butt;stroke-width:0.5;" x="54.0" xlink:href="#me8a85f7bf6" y="43.2"/>
      </g>
     </g>
     <g id="text_16">
      <!-- 2.0 -->
      <g transform="translate(35.49375 46.83984375)scale(0.1 -0.1)">
       <use xlink:href="#BitstreamVeraSans-Roman-32"/>
       <use x="63.623046875" xlink:href="#BitstreamVeraSans-Roman-2e"/>
       <use x="95.41015625" xlink:href="#BitstreamVeraSans-Roman-30"/>
      </g>
     </g>
    </g>
   </g>
   <g id="patch_3">
    <path d="
M54 43.2
L388.8 43.2" style="fill:none;opacity:0.0;"/>
   </g>
   <g id="patch_4">
    <path d="
M388.8 378
L388.8 43.2" style="fill:none;opacity:0.0;"/>
   </g>
   <g id="patch_5">
    <path d="
M54 300.738
L388.8 300.738" style="fill:none;stroke:#000000;"/>
   </g>
   <g id="patch_6">
    <path d="
M54 378
L54 43.2" style="fill:none;stroke:#000000;"/>
   </g>
   <g id="text_17">
    <!-- Morse potential plot -->
    <defs>
     <path id="BitstreamVeraSans-Roman-20"/>
     <path d="
M9.8125 72.9062
L24.5156 72.9062
L43.1094 23.2969
L61.8125 72.9062
L76.5156 72.9062
L76.5156 0
L66.8906 0
L66.8906 64.0156
L48.0938 14.0156
L38.1875 14.0156
L19.3906 64.0156
L19.3906 0
L9.8125 0
z
" id="BitstreamVeraSans-Roman-4d"/>
     <path d="
M54.8906 33.0156
L54.8906 0
L45.9062 0
L45.9062 32.7188
Q45.9062 40.4844 42.875 44.3281
Q39.8438 48.1875 33.7969 48.1875
Q26.5156 48.1875 22.3125 43.5469
Q18.1094 38.9219 18.1094 30.9062
L18.1094 0
L9.07812 0
L9.07812 54.6875
L18.1094 54.6875
L18.1094 46.1875
Q21.3438 51.125 25.7031 53.5625
Q30.0781 56 35.7969 56
Q45.2188 56 50.0469 50.1719
Q54.8906 44.3438 54.8906 33.0156" id="BitstreamVeraSans-Roman-6e"/>
     <path d="
M30.6094 48.3906
Q23.3906 48.3906 19.1875 42.75
Q14.9844 37.1094 14.9844 27.2969
Q14.9844 17.4844 19.1562 11.8438
Q23.3438 6.20312 30.6094 6.20312
Q37.7969 6.20312 41.9844 11.8594
Q46.1875 17.5312 46.1875 27.2969
Q46.1875 37.0156 41.9844 42.7031
Q37.7969 48.3906 30.6094 48.3906
M30.6094 56
Q42.3281 56 49.0156 48.375
Q55.7188 40.7656 55.7188 27.2969
Q55.7188 13.875 49.0156 6.21875
Q42.3281 -1.42188 30.6094 -1.42188
Q18.8438 -1.42188 12.1719 6.21875
Q5.51562 13.875 5.51562 27.2969
Q5.51562 40.7656 12.1719 48.375
Q18.8438 56 30.6094 56" id="BitstreamVeraSans-Roman-6f"/>
     <path d="
M9.42188 75.9844
L18.4062 75.9844
L18.4062 0
L9.42188 0
z
" id="BitstreamVeraSans-Roman-6c"/>
     <path d="
M9.42188 54.6875
L18.4062 54.6875
L18.4062 0
L9.42188 0
z

M9.42188 75.9844
L18.4062 75.9844
L18.4062 64.5938
L9.42188 64.5938
z
" id="BitstreamVeraSans-Roman-69"/>
     <path d="
M56.2031 29.5938
L56.2031 25.2031
L14.8906 25.2031
Q15.4844 15.9219 20.4844 11.0625
Q25.4844 6.20312 34.4219 6.20312
Q39.5938 6.20312 44.4531 7.46875
Q49.3125 8.73438 54.1094 11.2812
L54.1094 2.78125
Q49.2656 0.734375 44.1875 -0.34375
Q39.1094 -1.42188 33.8906 -1.42188
Q20.7969 -1.42188 13.1562 6.1875
Q5.51562 13.8125 5.51562 26.8125
Q5.51562 40.2344 12.7656 48.1094
Q20.0156 56 32.3281 56
Q43.3594 56 49.7812 48.8906
Q56.2031 41.7969 56.2031 29.5938
M47.2188 32.2344
Q47.125 39.5938 43.0938 43.9844
Q39.0625 48.3906 32.4219 48.3906
Q24.9062 48.3906 20.3906 44.1406
Q15.875 39.8906 15.1875 32.1719
z
" id="BitstreamVeraSans-Roman-65"/>
     <path d="
M18.3125 70.2188
L18.3125 54.6875
L36.8125 54.6875
L36.8125 47.7031
L18.3125 47.7031
L18.3125 18.0156
Q18.3125 11.3281 20.1406 9.42188
Q21.9688 7.51562 27.5938 7.51562
L36.8125 7.51562
L36.8125 0
L27.5938 0
Q17.1875 0 13.2344 3.875
Q9.28125 7.76562 9.28125 18.0156
L9.28125 47.7031
L2.6875 47.7031
L2.6875 54.6875
L9.28125 54.6875
L9.28125 70.2188
z
" id="BitstreamVeraSans-Roman-74"/>
     <path d="
M34.2812 27.4844
Q23.3906 27.4844 19.1875 25
Q14.9844 22.5156 14.9844 16.5
Q14.9844 11.7188 18.1406 8.90625
Q21.2969 6.10938 26.7031 6.10938
Q34.1875 6.10938 38.7031 11.4062
Q43.2188 16.7031 43.2188 25.4844
L43.2188 27.4844
z

M52.2031 31.2031
L52.2031 0
L43.2188 0
L43.2188 8.29688
Q40.1406 3.32812 35.5469 0.953125
Q30.9531 -1.42188 24.3125 -1.42188
Q15.9219 -1.42188 10.9531 3.29688
Q6 8.01562 6 15.9219
Q6 25.1406 12.1719 29.8281
Q18.3594 34.5156 30.6094 34.5156
L43.2188 34.5156
L43.2188 35.4062
Q43.2188 41.6094 39.1406 45
Q35.0625 48.3906 27.6875 48.3906
Q23 48.3906 18.5469 47.2656
Q14.1094 46.1406 10.0156 43.8906
L10.0156 52.2031
Q14.9375 54.1094 19.5781 55.0469
Q24.2188 56 28.6094 56
Q40.4844 56 46.3438 49.8438
Q52.2031 43.7031 52.2031 31.2031" id="BitstreamVeraSans-Roman-61"/>
     <path d="
M44.2812 53.0781
L44.2812 44.5781
Q40.4844 46.5312 36.375 47.5
Q32.2812 48.4844 27.875 48.4844
Q21.1875 48.4844 17.8438 46.4375
Q14.5 44.3906 14.5 40.2812
Q14.5 37.1562 16.8906 35.375
Q19.2812 33.5938 26.5156 31.9844
L29.5938 31.2969
Q39.1562 29.25 43.1875 25.5156
Q47.2188 21.7812 47.2188 15.0938
Q47.2188 7.46875 41.1875 3.01562
Q35.1562 -1.42188 24.6094 -1.42188
Q20.2188 -1.42188 15.4531 -0.5625
Q10.6875 0.296875 5.42188 2
L5.42188 11.2812
Q10.4062 8.6875 15.2344 7.39062
Q20.0625 6.10938 24.8125 6.10938
Q31.1562 6.10938 34.5625 8.28125
Q37.9844 10.4531 37.9844 14.4062
Q37.9844 18.0625 35.5156 20.0156
Q33.0625 21.9688 24.7031 23.7812
L21.5781 24.5156
Q13.2344 26.2656 9.51562 29.9062
Q5.8125 33.5469 5.8125 39.8906
Q5.8125 47.6094 11.2812 51.7969
Q16.75 56 26.8125 56
Q31.7812 56 36.1719 55.2656
Q40.5781 54.5469 44.2812 53.0781" id="BitstreamVeraSans-Roman-73"/>
     <path d="
M18.1094 8.20312
L18.1094 -20.7969
L9.07812 -20.7969
L9.07812 54.6875
L18.1094 54.6875
L18.1094 46.3906
Q20.9531 51.2656 25.2656 53.625
Q29.5938 56 35.5938 56
Q45.5625 56 51.7812 48.0938
Q58.0156 40.1875 58.0156 27.2969
Q58.0156 14.4062 51.7812 6.48438
Q45.5625 -1.42188 35.5938 -1.42188
Q29.5938 -1.42188 25.2656 0.953125
Q20.9531 3.32812 18.1094 8.20312
M48.6875 27.2969
Q48.6875 37.2031 44.6094 42.8438
Q40.5312 48.4844 33.4062 48.4844
Q26.2656 48.4844 22.1875 42.8438
Q18.1094 37.2031 18.1094 27.2969
Q18.1094 17.3906 22.1875 11.75
Q26.2656 6.10938 33.4062 6.10938
Q40.5312 6.10938 44.6094 11.75
Q48.6875 17.3906 48.6875 27.2969" id="BitstreamVeraSans-Roman-70"/>
    </defs>
    <g transform="translate(161.4084375 38.2)scale(0.12 -0.12)">
     <use xlink:href="#BitstreamVeraSans-Roman-4d"/>
     <use x="86.279296875" xlink:href="#BitstreamVeraSans-Roman-6f"/>
     <use x="147.4609375" xlink:href="#BitstreamVeraSans-Roman-72"/>
     <use x="188.57421875" xlink:href="#BitstreamVeraSans-Roman-73"/>
     <use x="240.673828125" xlink:href="#BitstreamVeraSans-Roman-65"/>
     <use x="302.197265625" xlink:href="#BitstreamVeraSans-Roman-20"/>
     <use x="333.984375" xlink:href="#BitstreamVeraSans-Roman-70"/>
     <use x="397.4609375" xlink:href="#BitstreamVeraSans-Roman-6f"/>
     <use x="458.642578125" xlink:href="#BitstreamVeraSans-Roman-74"/>
     <use x="497.8515625" xlink:href="#BitstreamVeraSans-Roman-65"/>
     <use x="559.375" xlink:href="#BitstreamVeraSans-Roman-6e"/>
     <use x="622.75390625" xlink:href="#BitstreamVeraSans-Roman-74"/>
     <use x="661.962890625" xlink:href="#BitstreamVeraSans-Roman-69"/>
     <use x="689.74609375" xlink:href="#BitstreamVeraSans-Roman-61"/>
     <use x="751.025390625" xlink:href="#BitstreamVeraSans-Roman-6c"/>
     <use x="778.80859375" xlink:href="#BitstreamVeraSans-Roman-20"/>
     <use x="810.595703125" xlink:href="#BitstreamVeraSans-Roman-70"/>
     <use x="874.072265625" xlink:href="#BitstreamVeraSans-Roman-6c"/>
     <use x="901.85546875" xlink:href="#BitstreamVeraSans-Roman-6f"/>
     <use x="963.037109375" xlink:href="#BitstreamVeraSans-Roman-74"/>
    </g>
   </g>
   <g id="legend_1">
    <g id="patch_7">
     <path d="
M318.219 87.1144
L382.8 87.1144
L382.8 49.2
L318.219 49.2
L318.219 87.1144
z
" style="fill:#ffffff;stroke:#000000;"/>
    </g>
    <g id="line2d_18">
     <path d="
M326.619 58.9181
L343.419 58.9181" style="fill:none;stroke:#0000ff;"/>
    </g>
    <g id="line2d_19"/>
    <g id="text_18">
     <!-- V(r) -->
     <defs>
      <path d="
M8.01562 75.875
L15.8281 75.875
Q23.1406 64.3594 26.7812 53.3125
Q30.4219 42.2812 30.4219 31.3906
Q30.4219 20.4531 26.7812 9.375
Q23.1406 -1.70312 15.8281 -13.1875
L8.01562 -13.1875
Q14.5 -2 17.7031 9.0625
Q20.9062 20.125 20.9062 31.3906
Q20.9062 42.6719 17.7031 53.6562
Q14.5 64.6562 8.01562 75.875" id="BitstreamVeraSans-Roman-29"/>
      <path d="
M31 75.875
Q24.4688 64.6562 21.2812 53.6562
Q18.1094 42.6719 18.1094 31.3906
Q18.1094 20.125 21.3125 9.0625
Q24.5156 -2 31 -13.1875
L23.1875 -13.1875
Q15.875 -1.70312 12.2344 9.375
Q8.59375 20.4531 8.59375 31.3906
Q8.59375 42.2812 12.2031 53.3125
Q15.8281 64.3594 23.1875 75.875
z
" id="BitstreamVeraSans-Roman-28"/>
      <path d="
M28.6094 0
L0.78125 72.9062
L11.0781 72.9062
L34.1875 11.5312
L57.3281 72.9062
L67.5781 72.9062
L39.7969 0
z
" id="BitstreamVeraSans-Roman-56"/>
     </defs>
     <g transform="translate(356.619375 63.118125)scale(0.12 -0.12)">
      <use xlink:href="#BitstreamVeraSans-Roman-56"/>
      <use x="68.408203125" xlink:href="#BitstreamVeraSans-Roman-28"/>
      <use x="107.421875" xlink:href="#BitstreamVeraSans-Roman-72"/>
      <use x="148.53515625" xlink:href="#BitstreamVeraSans-Roman-29"/>
     </g>
    </g>
    <g id="line2d_20">
     <path d="
M326.619 76.5319
L343.419 76.5319" style="fill:none;stroke:#008000;"/>
    </g>
    <g id="line2d_21"/>
    <g id="text_19">
     <!-- F(r) -->
     <defs>
      <path d="
M9.8125 72.9062
L51.7031 72.9062
L51.7031 64.5938
L19.6719 64.5938
L19.6719 43.1094
L48.5781 43.1094
L48.5781 34.8125
L19.6719 34.8125
L19.6719 0
L9.8125 0
z
" id="BitstreamVeraSans-Roman-46"/>
     </defs>
     <g transform="translate(356.619375 80.731875)scale(0.12 -0.12)">
      <use xlink:href="#BitstreamVeraSans-Roman-46"/>
      <use x="57.51953125" xlink:href="#BitstreamVeraSans-Roman-28"/>
      <use x="96.533203125" xlink:href="#BitstreamVeraSans-Roman-72"/>
      <use x="137.646484375" xlink:href="#BitstreamVeraSans-Roman-29"/>
     </g>
    </g>
   </g>
  </g>
 </g>
 <defs>
  <clipPath id="p7b0b5c6bc8">
   <rect height="334.8" width="334.8" x="54.0" y="43.2"/>
  </clipPath>
 </defs>
</svg>
