<?xml version="1.0" encoding="utf-8" standalone="no"?>
<!DOCTYPE svg PUBLIC "-//W3C//DTD SVG 1.1//EN"
  "http://www.w3.org/Graphics/SVG/1.1/DTD/svg11.dtd">
<!-- Created with matplotlib (http://matplotlib.org/) -->
<svg height="288pt" version="1.1" viewBox="0 0 432 288" width="432pt" xmlns="http://www.w3.org/2000/svg" xmlns:xlink="http://www.w3.org/1999/xlink">
 <defs>
  <style type="text/css">
*{stroke-linecap:butt;stroke-linejoin:round;}
  </style>
 </defs>
 <g id="figure_1">
  <g id="patch_1">
   <path d="
M0 288
L432 288
L432 0
L0 0
z
" style="fill:#ffffff;"/>
  </g>
  <g id="axes_1">
   <g id="patch_2">
    <path d="
M54 252
L388.8 252
L388.8 28.8
L54 28.8
z
" style="fill:#ffffff;"/>
   </g>
   <g id="line2d_1">
    <path clip-path="url(#p124b8dd147)" d="
M54 236.057
L71.6211 225.988
L89.2421 215.919
L106.863 205.85
L124.484 195.78
L142.105 185.711
L159.726 175.642
L177.347 165.573
L194.968 155.504
L212.589 145.435
L230.211 135.365
L247.832 125.296
L265.453 115.227
L283.074 105.158
L300.695 95.0887
L318.316 85.0195
L335.937 74.9504
L353.558 64.8812
L371.179 54.812
L388.8 44.7429" style="fill:none;stroke:#0000ff;stroke-linecap:square;"/>
   </g>
   <g id="line2d_2">
    <defs>
     <path d="
M0 -3
L-3 3
L3 3
z
" id="md7f788f78c" style="stroke:#000000;stroke-linejoin:miter;stroke-width:0.5;"/>
    </defs>
    <g clip-path="url(#p124b8dd147)">
     <use style="fill:#008000;stroke:#000000;stroke-linejoin:miter;stroke-width:0.5;" x="54.0" xlink:href="#md7f788f78c" y="250.760043452"/>
     <use style="fill:#008000;stroke:#000000;stroke-linejoin:miter;stroke-width:0.5;" x="71.6210526316" xlink:href="#md7f788f78c" y="232.426066229"/>
     <use style="fill:#008000;stroke:#000000;stroke-linejoin:miter;stroke-width:0.5;" x="89.2421052632" xlink:href="#md7f788f78c" y="186.351045386"/>
     <use style="fill:#008000;stroke:#000000;stroke-linejoin:miter;stroke-width:0.5;" x="106.863157895" xlink:href="#md7f788f78c" y="224.931988789"/>
     <use style="fill:#008000;stroke:#000000;stroke-linejoin:miter;stroke-width:0.5;" x="124.484210526" xlink:href="#md7f788f78c" y="185.450175952"/>
     <use style="fill:#008000;stroke:#000000;stroke-linejoin:miter;stroke-width:0.5;" x="142.105263158" xlink:href="#md7f788f78c" y="210.301689793"/>
     <use style="fill:#008000;stroke:#000000;stroke-linejoin:miter;stroke-width:0.5;" x="159.726315789" xlink:href="#md7f788f78c" y="174.409981415"/>
     <use style="fill:#008000;stroke:#000000;stroke-linejoin:miter;stroke-width:0.5;" x="177.347368421" xlink:href="#md7f788f78c" y="157.900331845"/>
     <use style="fill:#008000;stroke:#000000;stroke-linejoin:miter;stroke-width:0.5;" x="194.968421053" xlink:href="#md7f788f78c" y="128.866385919"/>
     <use style="fill:#008000;stroke:#000000;stroke-linejoin:miter;stroke-width:0.5;" x="212.589473684" xlink:href="#md7f788f78c" y="122.065717476"/>
     <use style="fill:#008000;stroke:#000000;stroke-linejoin:miter;stroke-width:0.5;" x="230.210526316" xlink:href="#md7f788f78c" y="139.763243402"/>
     <use style="fill:#008000;stroke:#000000;stroke-linejoin:miter;stroke-width:0.5;" x="247.831578947" xlink:href="#md7f788f78c" y="132.030797421"/>
     <use style="fill:#008000;stroke:#000000;stroke-linejoin:miter;stroke-width:0.5;" x="265.452631579" xlink:href="#md7f788f78c" y="138.963352149"/>
     <use style="fill:#008000;stroke:#000000;stroke-linejoin:miter;stroke-width:0.5;" x="283.073684211" xlink:href="#md7f788f78c" y="123.241235461"/>
     <use style="fill:#008000;stroke:#000000;stroke-linejoin:miter;stroke-width:0.5;" x="300.694736842" xlink:href="#md7f788f78c" y="75.1817346006"/>
     <use style="fill:#008000;stroke:#000000;stroke-linejoin:miter;stroke-width:0.5;" x="318.315789474" xlink:href="#md7f788f78c" y="82.5794835138"/>
     <use style="fill:#008000;stroke:#000000;stroke-linejoin:miter;stroke-width:0.5;" x="335.936842105" xlink:href="#md7f788f78c" y="61.8005096353"/>
     <use style="fill:#008000;stroke:#000000;stroke-linejoin:miter;stroke-width:0.5;" x="353.557894737" xlink:href="#md7f788f78c" y="82.9918525581"/>
     <use style="fill:#008000;stroke:#000000;stroke-linejoin:miter;stroke-width:0.5;" x="371.178947368" xlink:href="#md7f788f78c" y="38.3477941162"/>
     <use style="fill:#008000;stroke:#000000;stroke-linejoin:miter;stroke-width:0.5;" x="388.8" xlink:href="#md7f788f78c" y="70.8226683642"/>
    </g>
   </g>
   <g id="patch_3">
    <path d="
M54 28.8
L388.8 28.8" style="fill:none;stroke:#000000;stroke-linecap:square;stroke-linejoin:miter;"/>
   </g>
   <g id="patch_4">
    <path d="
M388.8 252
L388.8 28.8" style="fill:none;stroke:#000000;stroke-linecap:square;stroke-linejoin:miter;"/>
   </g>
   <g id="patch_5">
    <path d="
M54 252
L388.8 252" style="fill:none;stroke:#000000;stroke-linecap:square;stroke-linejoin:miter;"/>
   </g>
   <g id="patch_6">
    <path d="
M54 252
L54 28.8" style="fill:none;stroke:#000000;stroke-linecap:square;stroke-linejoin:miter;"/>
   </g>
   <g id="matplotlib.axis_1">
    <g id="xtick_1">
     <g id="line2d_3">
      <defs>
       <path d="
M0 0
L0 -4" id="m93b0483c22" style="stroke:#000000;stroke-width:0.5;"/>
      </defs>
      <g>
       <use style="stroke:#000000;stroke-width:0.5;" x="54.0" xlink:href="#m93b0483c22" y="252.0"/>
      </g>
     </g>
     <g id="line2d_4">
      <defs>
       <path d="
M0 0
L0 4" id="m741efc42ff" style="stroke:#000000;stroke-width:0.5;"/>
      </defs>
      <g>
       <use style="stroke:#000000;stroke-width:0.5;" x="54.0" xlink:href="#m741efc42ff" y="28.8"/>
      </g>
     </g>
     <g id="text_1">
      <!-- 0 -->
      <defs>
       <path d="
M31.7812 66.4062
Q24.1719 66.4062 20.3281 58.9062
Q16.5 51.4219 16.5 36.375
Q16.5 21.3906 20.3281 13.8906
Q24.1719 6.39062 31.7812 6.39062
Q39.4531 6.39062 43.2812 13.8906
Q47.125 21.3906 47.125 36.375
Q47.125 51.4219 43.2812 58.9062
Q39.4531 66.4062 31.7812 66.4062
M31.7812 74.2188
Q44.0469 74.2188 50.5156 64.5156
Q56.9844 54.8281 56.9844 36.375
Q56.9844 17.9688 50.5156 8.26562
Q44.0469 -1.42188 31.7812 -1.42188
Q19.5312 -1.42188 13.0625 8.26562
Q6.59375 17.9688 6.59375 36.375
Q6.59375 54.8281 13.0625 64.5156
Q19.5312 74.2188 31.7812 74.2188" id="BitstreamVeraSans-Roman-30"/>
      </defs>
      <g transform="translate(51.48046875 263.5984375)scale(0.1 -0.1)">
       <use xlink:href="#BitstreamVeraSans-Roman-30"/>
      </g>
     </g>
    </g>
    <g id="xtick_2">
     <g id="line2d_5">
      <g>
       <use style="stroke:#000000;stroke-width:0.5;" x="137.7" xlink:href="#m93b0483c22" y="252.0"/>
      </g>
     </g>
     <g id="line2d_6">
      <g>
       <use style="stroke:#000000;stroke-width:0.5;" x="137.7" xlink:href="#m741efc42ff" y="28.8"/>
      </g>
     </g>
     <g id="text_2">
      <!-- 5 -->
      <defs>
       <path d="
M10.7969 72.9062
L49.5156 72.9062
L49.5156 64.5938
L19.8281 64.5938
L19.8281 46.7344
Q21.9688 47.4688 24.1094 47.8281
Q26.2656 48.1875 28.4219 48.1875
Q40.625 48.1875 47.75 41.5
Q54.8906 34.8125 54.8906 23.3906
Q54.8906 11.625 47.5625 5.09375
Q40.2344 -1.42188 26.9062 -1.42188
Q22.3125 -1.42188 17.5469 -0.640625
Q12.7969 0.140625 7.71875 1.70312
L7.71875 11.625
Q12.1094 9.23438 16.7969 8.0625
Q21.4844 6.89062 26.7031 6.89062
Q35.1562 6.89062 40.0781 11.3281
Q45.0156 15.7656 45.0156 23.3906
Q45.0156 31 40.0781 35.4375
Q35.1562 39.8906 26.7031 39.8906
Q22.75 39.8906 18.8125 39.0156
Q14.8906 38.1406 10.7969 36.2812
z
" id="BitstreamVeraSans-Roman-35"/>
      </defs>
      <g transform="translate(135.34140625 263.5984375)scale(0.1 -0.1)">
       <use xlink:href="#BitstreamVeraSans-Roman-35"/>
      </g>
     </g>
    </g>
    <g id="xtick_3">
     <g id="line2d_7">
      <g>
       <use style="stroke:#000000;stroke-width:0.5;" x="221.4" xlink:href="#m93b0483c22" y="252.0"/>
      </g>
     </g>
     <g id="line2d_8">
      <g>
       <use style="stroke:#000000;stroke-width:0.5;" x="221.4" xlink:href="#m741efc42ff" y="28.8"/>
      </g>
     </g>
     <g id="text_3">
      <!-- 10 -->
      <defs>
       <path d="
M12.4062 8.29688
L28.5156 8.29688
L28.5156 63.9219
L10.9844 60.4062
L10.9844 69.3906
L28.4219 72.9062
L38.2812 72.9062
L38.2812 8.29688
L54.3906 8.29688
L54.3906 0
L12.4062 0
z
" id="BitstreamVeraSans-Roman-31"/>
      </defs>
      <g transform="translate(215.91875 263.5984375)scale(0.1 -0.1)">
       <use xlink:href="#BitstreamVeraSans-Roman-31"/>
       <use x="63.623046875" xlink:href="#BitstreamVeraSans-Roman-30"/>
      </g>
     </g>
    </g>
    <g id="xtick_4">
     <g id="line2d_9">
      <g>
       <use style="stroke:#000000;stroke-width:0.5;" x="305.1" xlink:href="#m93b0483c22" y="252.0"/>
      </g>
     </g>
     <g id="line2d_10">
      <g>
       <use style="stroke:#000000;stroke-width:0.5;" x="305.1" xlink:href="#m741efc42ff" y="28.8"/>
      </g>
     </g>
     <g id="text_4">
      <!-- 15 -->
      <g transform="translate(299.7234375 263.5984375)scale(0.1 -0.1)">
       <use xlink:href="#BitstreamVeraSans-Roman-31"/>
       <use x="63.623046875" xlink:href="#BitstreamVeraSans-Roman-35"/>
      </g>
     </g>
    </g>
    <g id="xtick_5">
     <g id="line2d_11">
      <g>
       <use style="stroke:#000000;stroke-width:0.5;" x="388.8" xlink:href="#m93b0483c22" y="252.0"/>
      </g>
     </g>
     <g id="line2d_12">
      <g>
       <use style="stroke:#000000;stroke-width:0.5;" x="388.8" xlink:href="#m741efc42ff" y="28.8"/>
      </g>
     </g>
     <g id="text_5">
      <!-- 20 -->
      <defs>
       <path d="
M19.1875 8.29688
L53.6094 8.29688
L53.6094 0
L7.32812 0
L7.32812 8.29688
Q12.9375 14.1094 22.625 23.8906
Q32.3281 33.6875 34.8125 36.5312
Q39.5469 41.8438 41.4219 45.5312
Q43.3125 49.2188 43.3125 52.7812
Q43.3125 58.5938 39.2344 62.25
Q35.1562 65.9219 28.6094 65.9219
Q23.9688 65.9219 18.8125 64.3125
Q13.6719 62.7031 7.8125 59.4219
L7.8125 69.3906
Q13.7656 71.7812 18.9375 73
Q24.125 74.2188 28.4219 74.2188
Q39.75 74.2188 46.4844 68.5469
Q53.2188 62.8906 53.2188 53.4219
Q53.2188 48.9219 51.5312 44.8906
Q49.8594 40.875 45.4062 35.4062
Q44.1875 33.9844 37.6406 27.2188
Q31.1094 20.4531 19.1875 8.29688" id="BitstreamVeraSans-Roman-32"/>
      </defs>
      <g transform="translate(383.1359375 263.5984375)scale(0.1 -0.1)">
       <use xlink:href="#BitstreamVeraSans-Roman-32"/>
       <use x="63.623046875" xlink:href="#BitstreamVeraSans-Roman-30"/>
      </g>
     </g>
    </g>
   </g>
   <g id="matplotlib.axis_2">
    <g id="ytick_1">
     <g id="line2d_13">
      <defs>
       <path d="
M0 0
L4 0" id="m728421d6d4" style="stroke:#000000;stroke-width:0.5;"/>
      </defs>
      <g>
       <use style="stroke:#000000;stroke-width:0.5;" x="54.0" xlink:href="#m728421d6d4" y="252.0"/>
      </g>
     </g>
     <g id="line2d_14">
      <defs>
       <path d="
M0 0
L-4 0" id="mcb0005524f" style="stroke:#000000;stroke-width:0.5;"/>
      </defs>
      <g>
       <use style="stroke:#000000;stroke-width:0.5;" x="388.8" xlink:href="#mcb0005524f" y="252.0"/>
      </g>
     </g>
     <g id="text_6">
      <!-- 0 -->
      <g transform="translate(44.9609375 254.759375)scale(0.1 -0.1)">
       <use xlink:href="#BitstreamVeraSans-Roman-30"/>
      </g>
     </g>
    </g>
    <g id="ytick_2">
     <g id="line2d_15">
      <g>
       <use style="stroke:#000000;stroke-width:0.5;" x="54.0" xlink:href="#m728421d6d4" y="220.114285714"/>
      </g>
     </g>
     <g id="line2d_16">
      <g>
       <use style="stroke:#000000;stroke-width:0.5;" x="388.8" xlink:href="#mcb0005524f" y="220.114285714"/>
      </g>
     </g>
     <g id="text_7">
      <!-- 10 -->
      <g transform="translate(39.0375 222.873660714)scale(0.1 -0.1)">
       <use xlink:href="#BitstreamVeraSans-Roman-31"/>
       <use x="63.623046875" xlink:href="#BitstreamVeraSans-Roman-30"/>
      </g>
     </g>
    </g>
    <g id="ytick_3">
     <g id="line2d_17">
      <g>
       <use style="stroke:#000000;stroke-width:0.5;" x="54.0" xlink:href="#m728421d6d4" y="188.228571429"/>
      </g>
     </g>
     <g id="line2d_18">
      <g>
       <use style="stroke:#000000;stroke-width:0.5;" x="388.8" xlink:href="#mcb0005524f" y="188.228571429"/>
      </g>
     </g>
     <g id="text_8">
      <!-- 20 -->
      <g transform="translate(38.671875 190.987946429)scale(0.1 -0.1)">
       <use xlink:href="#BitstreamVeraSans-Roman-32"/>
       <use x="63.623046875" xlink:href="#BitstreamVeraSans-Roman-30"/>
      </g>
     </g>
    </g>
    <g id="ytick_4">
     <g id="line2d_19">
      <g>
       <use style="stroke:#000000;stroke-width:0.5;" x="54.0" xlink:href="#m728421d6d4" y="156.342857143"/>
      </g>
     </g>
     <g id="line2d_20">
      <g>
       <use style="stroke:#000000;stroke-width:0.5;" x="388.8" xlink:href="#mcb0005524f" y="156.342857143"/>
      </g>
     </g>
     <g id="text_9">
      <!-- 30 -->
      <defs>
       <path d="
M40.5781 39.3125
Q47.6562 37.7969 51.625 33
Q55.6094 28.2188 55.6094 21.1875
Q55.6094 10.4062 48.1875 4.48438
Q40.7656 -1.42188 27.0938 -1.42188
Q22.5156 -1.42188 17.6562 -0.515625
Q12.7969 0.390625 7.625 2.20312
L7.625 11.7188
Q11.7188 9.32812 16.5938 8.10938
Q21.4844 6.89062 26.8125 6.89062
Q36.0781 6.89062 40.9375 10.5469
Q45.7969 14.2031 45.7969 21.1875
Q45.7969 27.6406 41.2812 31.2656
Q36.7656 34.9062 28.7188 34.9062
L20.2188 34.9062
L20.2188 43.0156
L29.1094 43.0156
Q36.375 43.0156 40.2344 45.9219
Q44.0938 48.8281 44.0938 54.2969
Q44.0938 59.9062 40.1094 62.9062
Q36.1406 65.9219 28.7188 65.9219
Q24.6562 65.9219 20.0156 65.0312
Q15.375 64.1562 9.8125 62.3125
L9.8125 71.0938
Q15.4375 72.6562 20.3438 73.4375
Q25.25 74.2188 29.5938 74.2188
Q40.8281 74.2188 47.3594 69.1094
Q53.9062 64.0156 53.9062 55.3281
Q53.9062 49.2656 50.4375 45.0938
Q46.9688 40.9219 40.5781 39.3125" id="BitstreamVeraSans-Roman-33"/>
      </defs>
      <g transform="translate(38.7015625 159.102232143)scale(0.1 -0.1)">
       <use xlink:href="#BitstreamVeraSans-Roman-33"/>
       <use x="63.623046875" xlink:href="#BitstreamVeraSans-Roman-30"/>
      </g>
     </g>
    </g>
    <g id="ytick_5">
     <g id="line2d_21">
      <g>
       <use style="stroke:#000000;stroke-width:0.5;" x="54.0" xlink:href="#m728421d6d4" y="124.457142857"/>
      </g>
     </g>
     <g id="line2d_22">
      <g>
       <use style="stroke:#000000;stroke-width:0.5;" x="388.8" xlink:href="#mcb0005524f" y="124.457142857"/>
      </g>
     </g>
     <g id="text_10">
      <!-- 40 -->
      <defs>
       <path d="
M37.7969 64.3125
L12.8906 25.3906
L37.7969 25.3906
z

M35.2031 72.9062
L47.6094 72.9062
L47.6094 25.3906
L58.0156 25.3906
L58.0156 17.1875
L47.6094 17.1875
L47.6094 0
L37.7969 0
L37.7969 17.1875
L4.89062 17.1875
L4.89062 26.7031
z
" id="BitstreamVeraSans-Roman-34"/>
      </defs>
      <g transform="translate(38.428125 127.216517857)scale(0.1 -0.1)">
       <use xlink:href="#BitstreamVeraSans-Roman-34"/>
       <use x="63.623046875" xlink:href="#BitstreamVeraSans-Roman-30"/>
      </g>
     </g>
    </g>
    <g id="ytick_6">
     <g id="line2d_23">
      <g>
       <use style="stroke:#000000;stroke-width:0.5;" x="54.0" xlink:href="#m728421d6d4" y="92.5714285714"/>
      </g>
     </g>
     <g id="line2d_24">
      <g>
       <use style="stroke:#000000;stroke-width:0.5;" x="388.8" xlink:href="#mcb0005524f" y="92.5714285714"/>
      </g>
     </g>
     <g id="text_11">
      <!-- 50 -->
      <g transform="translate(38.7109375 95.3308035714)scale(0.1 -0.1)">
       <use xlink:href="#BitstreamVeraSans-Roman-35"/>
       <use x="63.623046875" xlink:href="#BitstreamVeraSans-Roman-30"/>
      </g>
     </g>
    </g>
    <g id="ytick_7">
     <g id="line2d_25">
      <g>
       <use style="stroke:#000000;stroke-width:0.5;" x="54.0" xlink:href="#m728421d6d4" y="60.6857142857"/>
      </g>
     </g>
     <g id="line2d_26">
      <g>
       <use style="stroke:#000000;stroke-width:0.5;" x="388.8" xlink:href="#mcb0005524f" y="60.6857142857"/>
      </g>
     </g>
     <g id="text_12">
      <!-- 60 -->
      <defs>
       <path d="
M33.0156 40.375
Q26.375 40.375 22.4844 35.8281
Q18.6094 31.2969 18.6094 23.3906
Q18.6094 15.5312 22.4844 10.9531
Q26.375 6.39062 33.0156 6.39062
Q39.6562 6.39062 43.5312 10.9531
Q47.4062 15.5312 47.4062 23.3906
Q47.4062 31.2969 43.5312 35.8281
Q39.6562 40.375 33.0156 40.375
M52.5938 71.2969
L52.5938 62.3125
Q48.875 64.0625 45.0938 64.9844
Q41.3125 65.9219 37.5938 65.9219
Q27.8281 65.9219 22.6719 59.3281
Q17.5312 52.7344 16.7969 39.4062
Q19.6719 43.6562 24.0156 45.9219
Q28.375 48.1875 33.5938 48.1875
Q44.5781 48.1875 50.9531 41.5156
Q57.3281 34.8594 57.3281 23.3906
Q57.3281 12.1562 50.6875 5.35938
Q44.0469 -1.42188 33.0156 -1.42188
Q20.3594 -1.42188 13.6719 8.26562
Q6.98438 17.9688 6.98438 36.375
Q6.98438 53.6562 15.1875 63.9375
Q23.3906 74.2188 37.2031 74.2188
Q40.9219 74.2188 44.7031 73.4844
Q48.4844 72.75 52.5938 71.2969" id="BitstreamVeraSans-Roman-36"/>
      </defs>
      <g transform="translate(38.6375 63.4450892857)scale(0.1 -0.1)">
       <use xlink:href="#BitstreamVeraSans-Roman-36"/>
       <use x="63.623046875" xlink:href="#BitstreamVeraSans-Roman-30"/>
      </g>
     </g>
    </g>
    <g id="ytick_8">
     <g id="line2d_27">
      <g>
       <use style="stroke:#000000;stroke-width:0.5;" x="54.0" xlink:href="#m728421d6d4" y="28.8"/>
      </g>
     </g>
     <g id="line2d_28">
      <g>
       <use style="stroke:#000000;stroke-width:0.5;" x="388.8" xlink:href="#mcb0005524f" y="28.8"/>
      </g>
     </g>
     <g id="text_13">
      <!-- 70 -->
      <defs>
       <path d="
M8.20312 72.9062
L55.0781 72.9062
L55.0781 68.7031
L28.6094 0
L18.3125 0
L43.2188 64.5938
L8.20312 64.5938
z
" id="BitstreamVeraSans-Roman-37"/>
      </defs>
      <g transform="translate(38.759375 31.559375)scale(0.1 -0.1)">
       <use xlink:href="#BitstreamVeraSans-Roman-37"/>
       <use x="63.623046875" xlink:href="#BitstreamVeraSans-Roman-30"/>
      </g>
     </g>
    </g>
   </g>
   <g id="text_14">
    <!-- y=mx+c -->
    <defs>
     <path d="
M10.5938 45.4062
L73.1875 45.4062
L73.1875 37.2031
L10.5938 37.2031
z

M10.5938 25.4844
L73.1875 25.4844
L73.1875 17.1875
L10.5938 17.1875
z
" id="BitstreamVeraSans-Roman-3d"/>
     <path d="
M52 44.1875
Q55.375 50.25 60.0625 53.125
Q64.75 56 71.0938 56
Q79.6406 56 84.2812 50.0156
Q88.9219 44.0469 88.9219 33.0156
L88.9219 0
L79.8906 0
L79.8906 32.7188
Q79.8906 40.5781 77.0938 44.375
Q74.3125 48.1875 68.6094 48.1875
Q61.625 48.1875 57.5625 43.5469
Q53.5156 38.9219 53.5156 30.9062
L53.5156 0
L44.4844 0
L44.4844 32.7188
Q44.4844 40.625 41.7031 44.4062
Q38.9219 48.1875 33.1094 48.1875
Q26.2188 48.1875 22.1562 43.5312
Q18.1094 38.875 18.1094 30.9062
L18.1094 0
L9.07812 0
L9.07812 54.6875
L18.1094 54.6875
L18.1094 46.1875
Q21.1875 51.2188 25.4844 53.6094
Q29.7812 56 35.6875 56
Q41.6562 56 45.8281 52.9688
Q50 49.9531 52 44.1875" id="BitstreamVeraSans-Roman-6d"/>
     <path d="
M46 62.7031
L46 35.5
L73.1875 35.5
L73.1875 27.2031
L46 27.2031
L46 0
L37.7969 0
L37.7969 27.2031
L10.5938 27.2031
L10.5938 35.5
L37.7969 35.5
L37.7969 62.7031
z
" id="BitstreamVeraSans-Roman-2b"/>
     <path d="
M54.8906 54.6875
L35.1094 28.0781
L55.9062 0
L45.3125 0
L29.3906 21.4844
L13.4844 0
L2.875 0
L24.125 28.6094
L4.6875 54.6875
L15.2812 54.6875
L29.7812 35.2031
L44.2812 54.6875
z
" id="BitstreamVeraSans-Roman-78"/>
     <path d="
M32.1719 -5.07812
Q28.375 -14.8438 24.75 -17.8125
Q21.1406 -20.7969 15.0938 -20.7969
L7.90625 -20.7969
L7.90625 -13.2812
L13.1875 -13.2812
Q16.8906 -13.2812 18.9375 -11.5156
Q21 -9.76562 23.4844 -3.21875
L25.0938 0.875
L2.98438 54.6875
L12.5 54.6875
L29.5938 11.9219
L46.6875 54.6875
L56.2031 54.6875
z
" id="BitstreamVeraSans-Roman-79"/>
     <path d="
M48.7812 52.5938
L48.7812 44.1875
Q44.9688 46.2969 41.1406 47.3438
Q37.3125 48.3906 33.4062 48.3906
Q24.6562 48.3906 19.8125 42.8438
Q14.9844 37.3125 14.9844 27.2969
Q14.9844 17.2812 19.8125 11.7344
Q24.6562 6.20312 33.4062 6.20312
Q37.3125 6.20312 41.1406 7.25
Q44.9688 8.29688 48.7812 10.4062
L48.7812 2.09375
Q45.0156 0.34375 40.9844 -0.53125
Q36.9688 -1.42188 32.4219 -1.42188
Q20.0625 -1.42188 12.7812 6.34375
Q5.51562 14.1094 5.51562 27.2969
Q5.51562 40.6719 12.8594 48.3281
Q20.2188 56 33.0156 56
Q37.1562 56 41.1094 55.1406
Q45.0625 54.2969 48.7812 52.5938" id="BitstreamVeraSans-Roman-63"/>
    </defs>
    <g transform="translate(104.22 92.5714285714)scale(0.2 -0.2)">
     <use xlink:href="#BitstreamVeraSans-Roman-79"/>
     <use x="59.1796875" xlink:href="#BitstreamVeraSans-Roman-3d"/>
     <use x="142.96875" xlink:href="#BitstreamVeraSans-Roman-6d"/>
     <use x="240.380859375" xlink:href="#BitstreamVeraSans-Roman-78"/>
     <use x="299.560546875" xlink:href="#BitstreamVeraSans-Roman-2b"/>
     <use x="383.349609375" xlink:href="#BitstreamVeraSans-Roman-63"/>
    </g>
   </g>
  </g>
 </g>
 <defs>
  <clipPath id="p124b8dd147">
   <rect height="223.2" width="334.8" x="54.0" y="28.8"/>
  </clipPath>
 </defs>
</svg>
