<?xml version="1.0" encoding="utf-8" standalone="no"?>
<!DOCTYPE svg PUBLIC "-//W3C//DTD SVG 1.1//EN"
  "http://www.w3.org/Graphics/SVG/1.1/DTD/svg11.dtd">
<!-- Created with matplotlib (http://matplotlib.org/) -->
<svg height="288pt" version="1.1" viewBox="0 0 432 288" width="432pt" xmlns="http://www.w3.org/2000/svg" xmlns:xlink="http://www.w3.org/1999/xlink">
 <defs>
  <style type="text/css">
*{stroke-linecap:butt;stroke-linejoin:round;}
  </style>
 </defs>
 <g id="figure_1">
  <g id="patch_1">
   <path d="
M0 288
L432 288
L432 0
L0 0
z
" style="fill:#ffffff;"/>
  </g>
  <g id="axes_1">
   <g id="patch_2">
    <path d="
M54 252
L388.8 252
L388.8 28.8
L54 28.8
z
" style="fill:#ffffff;"/>
   </g>
   <g id="line2d_1">
    <path clip-path="url(#p124b8dd147)" d="
M54 252
L89.1892 245.969
L108.292 242.929
L124.378 240.59
L138.789 238.714
L152.195 237.186
L164.93 235.951
L177.33 234.968
L189.395 234.233
L201.124 233.736
L212.854 233.46
L224.584 233.408
L236.314 233.582
L248.043 233.978
L260.108 234.613
L272.173 235.471
L284.573 236.573
L297.643 237.96
L311.384 239.646
L326.13 241.682
L342.551 244.179
L361.989 247.37
L388.8 252
L388.8 252" style="fill:none;stroke:#0000ff;stroke-linecap:square;"/>
   </g>
   <g id="line2d_2">
    <path clip-path="url(#p124b8dd147)" d="
M54 214.8
L71.7622 208.714
L81.4811 205.627
L89.5243 203.298
L96.8973 201.392
L103.6 199.881
L109.968 198.663
L116.335 197.675
L122.368 196.965
L128.4 196.483
L134.097 196.242
L139.795 196.214
L145.492 196.399
L151.524 196.822
L157.557 197.477
L163.589 198.353
L169.957 199.505
L176.659 200.954
L183.697 202.71
L191.405 204.874
L199.784 207.46
L210.173 210.91
L247.708 223.615
L256.086 226.071
L263.459 228.004
L270.162 229.543
L276.53 230.79
L282.897 231.809
L288.93 232.55
L294.962 233.064
L300.995 233.345
L306.692 233.392
L312.389 233.226
L318.422 232.822
L324.454 232.187
L330.486 231.329
L336.854 230.194
L343.557 228.763
L350.595 227.023
L357.968 224.972
L366.346 222.408
L376.4 219.089
L388.8 214.8
L388.8 214.8" style="fill:none;stroke:#008000;stroke-linecap:square;"/>
   </g>
   <g id="line2d_3">
    <path clip-path="url(#p124b8dd147)" d="
M54 177.6
L66.0649 171.404
L72.4324 168.376
L77.7946 166.052
L82.8216 164.111
L87.5135 162.542
L91.8703 161.319
L95.8919 160.407
L99.9135 159.716
L103.935 159.253
L107.957 159.025
L111.978 159.035
L116 159.283
L120.022 159.765
L124.043 160.475
L128.065 161.405
L132.422 162.646
L136.778 164.111
L141.47 165.915
L146.832 168.224
L152.865 171.074
L160.573 174.977
L180.011 184.94
L186.043 187.723
L191.405 189.954
L196.097 191.678
L200.454 193.059
L204.811 194.208
L208.832 195.048
L212.854 195.664
L216.876 196.049
L220.897 196.198
L224.919 196.109
L228.941 195.783
L232.962 195.223
L236.984 194.439
L241.005 193.438
L245.362 192.126
L250.054 190.47
L255.081 188.447
L260.778 185.895
L267.481 182.626
L277.2 177.6
L289.265 171.404
L295.632 168.376
L300.995 166.052
L306.022 164.111
L310.714 162.542
L315.07 161.319
L319.092 160.407
L323.114 159.716
L327.135 159.253
L331.157 159.025
L335.178 159.035
L339.2 159.283
L343.222 159.765
L347.243 160.475
L351.265 161.405
L355.622 162.646
L359.978 164.111
L364.67 165.915
L370.032 168.224
L376.065 171.074
L383.773 174.977
L388.8 177.6
L388.8 177.6" style="fill:none;stroke:#ff0000;stroke-linecap:square;"/>
   </g>
   <g id="line2d_4">
    <path clip-path="url(#p124b8dd147)" d="
M54 121.8
L63.3838 115.383
L68.4108 112.223
L72.4324 109.934
L76.1189 108.072
L79.4703 106.606
L82.8216 105.38
L85.8378 104.498
L88.8541 103.838
L91.8703 103.407
L94.8865 103.212
L97.9027 103.255
L100.919 103.536
L103.935 104.05
L106.951 104.791
L109.968 105.751
L113.319 107.057
L116.67 108.596
L120.357 110.529
L124.378 112.882
L129.405 116.102
L136.108 120.689
L147.168 128.271
L152.195 131.427
L156.216 133.711
L159.903 135.568
L163.254 137.028
L166.605 138.247
L169.622 139.123
L172.638 139.778
L175.654 140.201
L178.67 140.39
L181.686 140.34
L184.703 140.053
L187.719 139.533
L190.735 138.785
L193.751 137.82
L197.103 136.507
L200.454 134.963
L204.141 133.024
L208.162 130.666
L213.189 127.442
L220.227 122.619
L230.616 115.493
L235.643 112.323
L240 109.844
L243.686 107.993
L247.038 106.539
L250.389 105.325
L253.405 104.455
L256.422 103.808
L259.438 103.39
L262.454 103.208
L265.47 103.265
L268.486 103.558
L271.503 104.085
L274.519 104.839
L277.535 105.81
L280.886 107.129
L284.238 108.679
L287.924 110.623
L292.281 113.192
L297.308 116.437
L304.681 121.508
L314.4 128.162
L319.427 131.327
L323.784 133.801
L327.47 135.646
L330.822 137.095
L334.173 138.302
L337.189 139.166
L340.205 139.807
L343.222 140.218
L346.238 140.393
L349.254 140.33
L352.27 140.03
L355.286 139.497
L358.303 138.737
L361.319 137.76
L364.67 136.435
L368.022 134.88
L371.708 132.931
L376.065 130.356
L381.092 127.107
L388.465 122.034
L388.8 121.8
L388.8 121.8" style="fill:none;stroke:#00bfbf;stroke-linecap:square;"/>
   </g>
   <g id="patch_3">
    <path d="
M54 28.8
L388.8 28.8" style="fill:none;stroke:#000000;stroke-linecap:square;stroke-linejoin:miter;"/>
   </g>
   <g id="patch_4">
    <path d="
M388.8 252
L388.8 28.8" style="fill:none;stroke:#000000;stroke-linecap:square;stroke-linejoin:miter;"/>
   </g>
   <g id="patch_5">
    <path d="
M54 252
L388.8 252" style="fill:none;stroke:#000000;stroke-linecap:square;stroke-linejoin:miter;"/>
   </g>
   <g id="patch_6">
    <path d="
M54 252
L54 28.8" style="fill:none;stroke:#000000;stroke-linecap:square;stroke-linejoin:miter;"/>
   </g>
   <g id="matplotlib.axis_1">
    <g id="xtick_1">
     <g id="line2d_5">
      <defs>
       <path d="
M0 0
L0 -4" id="m93b0483c22" style="stroke:#000000;stroke-width:0.5;"/>
      </defs>
      <g>
       <use style="stroke:#000000;stroke-width:0.5;" x="54.0" xlink:href="#m93b0483c22" y="252.0"/>
      </g>
     </g>
     <g id="line2d_6">
      <defs>
       <path d="
M0 0
L0 4" id="m741efc42ff" style="stroke:#000000;stroke-width:0.5;"/>
      </defs>
      <g>
       <use style="stroke:#000000;stroke-width:0.5;" x="54.0" xlink:href="#m741efc42ff" y="28.8"/>
      </g>
     </g>
     <g id="text_1">
      <!-- 0 -->
      <defs>
       <path d="
M31.7812 66.4062
Q24.1719 66.4062 20.3281 58.9062
Q16.5 51.4219 16.5 36.375
Q16.5 21.3906 20.3281 13.8906
Q24.1719 6.39062 31.7812 6.39062
Q39.4531 6.39062 43.2812 13.8906
Q47.125 21.3906 47.125 36.375
Q47.125 51.4219 43.2812 58.9062
Q39.4531 66.4062 31.7812 66.4062
M31.7812 74.2188
Q44.0469 74.2188 50.5156 64.5156
Q56.9844 54.8281 56.9844 36.375
Q56.9844 17.9688 50.5156 8.26562
Q44.0469 -1.42188 31.7812 -1.42188
Q19.5312 -1.42188 13.0625 8.26562
Q6.59375 17.9688 6.59375 36.375
Q6.59375 54.8281 13.0625 64.5156
Q19.5312 74.2188 31.7812 74.2188" id="BitstreamVeraSans-Roman-30"/>
      </defs>
      <g transform="translate(51.48046875 263.5984375)scale(0.1 -0.1)">
       <use xlink:href="#BitstreamVeraSans-Roman-30"/>
      </g>
     </g>
    </g>
    <g id="xtick_2">
     <g id="line2d_7">
      <g>
       <use style="stroke:#000000;stroke-width:0.5;" x="120.96" xlink:href="#m93b0483c22" y="252.0"/>
      </g>
     </g>
     <g id="line2d_8">
      <g>
       <use style="stroke:#000000;stroke-width:0.5;" x="120.96" xlink:href="#m741efc42ff" y="28.8"/>
      </g>
     </g>
     <g id="text_2">
      <!-- 2 -->
      <defs>
       <path d="
M19.1875 8.29688
L53.6094 8.29688
L53.6094 0
L7.32812 0
L7.32812 8.29688
Q12.9375 14.1094 22.625 23.8906
Q32.3281 33.6875 34.8125 36.5312
Q39.5469 41.8438 41.4219 45.5312
Q43.3125 49.2188 43.3125 52.7812
Q43.3125 58.5938 39.2344 62.25
Q35.1562 65.9219 28.6094 65.9219
Q23.9688 65.9219 18.8125 64.3125
Q13.6719 62.7031 7.8125 59.4219
L7.8125 69.3906
Q13.7656 71.7812 18.9375 73
Q24.125 74.2188 28.4219 74.2188
Q39.75 74.2188 46.4844 68.5469
Q53.2188 62.8906 53.2188 53.4219
Q53.2188 48.9219 51.5312 44.8906
Q49.8594 40.875 45.4062 35.4062
Q44.1875 33.9844 37.6406 27.2188
Q31.1094 20.4531 19.1875 8.29688" id="BitstreamVeraSans-Roman-32"/>
      </defs>
      <g transform="translate(118.6459375 263.5984375)scale(0.1 -0.1)">
       <use xlink:href="#BitstreamVeraSans-Roman-32"/>
      </g>
     </g>
    </g>
    <g id="xtick_3">
     <g id="line2d_9">
      <g>
       <use style="stroke:#000000;stroke-width:0.5;" x="187.92" xlink:href="#m93b0483c22" y="252.0"/>
      </g>
     </g>
     <g id="line2d_10">
      <g>
       <use style="stroke:#000000;stroke-width:0.5;" x="187.92" xlink:href="#m741efc42ff" y="28.8"/>
      </g>
     </g>
     <g id="text_3">
      <!-- 4 -->
      <defs>
       <path d="
M37.7969 64.3125
L12.8906 25.3906
L37.7969 25.3906
z

M35.2031 72.9062
L47.6094 72.9062
L47.6094 25.3906
L58.0156 25.3906
L58.0156 17.1875
L47.6094 17.1875
L47.6094 0
L37.7969 0
L37.7969 17.1875
L4.89062 17.1875
L4.89062 26.7031
z
" id="BitstreamVeraSans-Roman-34"/>
      </defs>
      <g transform="translate(185.26375 263.5984375)scale(0.1 -0.1)">
       <use xlink:href="#BitstreamVeraSans-Roman-34"/>
      </g>
     </g>
    </g>
    <g id="xtick_4">
     <g id="line2d_11">
      <g>
       <use style="stroke:#000000;stroke-width:0.5;" x="254.88" xlink:href="#m93b0483c22" y="252.0"/>
      </g>
     </g>
     <g id="line2d_12">
      <g>
       <use style="stroke:#000000;stroke-width:0.5;" x="254.88" xlink:href="#m741efc42ff" y="28.8"/>
      </g>
     </g>
     <g id="text_4">
      <!-- 6 -->
      <defs>
       <path d="
M33.0156 40.375
Q26.375 40.375 22.4844 35.8281
Q18.6094 31.2969 18.6094 23.3906
Q18.6094 15.5312 22.4844 10.9531
Q26.375 6.39062 33.0156 6.39062
Q39.6562 6.39062 43.5312 10.9531
Q47.4062 15.5312 47.4062 23.3906
Q47.4062 31.2969 43.5312 35.8281
Q39.6562 40.375 33.0156 40.375
M52.5938 71.2969
L52.5938 62.3125
Q48.875 64.0625 45.0938 64.9844
Q41.3125 65.9219 37.5938 65.9219
Q27.8281 65.9219 22.6719 59.3281
Q17.5312 52.7344 16.7969 39.4062
Q19.6719 43.6562 24.0156 45.9219
Q28.375 48.1875 33.5938 48.1875
Q44.5781 48.1875 50.9531 41.5156
Q57.3281 34.8594 57.3281 23.3906
Q57.3281 12.1562 50.6875 5.35938
Q44.0469 -1.42188 33.0156 -1.42188
Q20.3594 -1.42188 13.6719 8.26562
Q6.98438 17.9688 6.98438 36.375
Q6.98438 53.6562 15.1875 63.9375
Q23.3906 74.2188 37.2031 74.2188
Q40.9219 74.2188 44.7031 73.4844
Q48.4844 72.75 52.5938 71.2969" id="BitstreamVeraSans-Roman-36"/>
      </defs>
      <g transform="translate(252.3628125 263.5984375)scale(0.1 -0.1)">
       <use xlink:href="#BitstreamVeraSans-Roman-36"/>
      </g>
     </g>
    </g>
    <g id="xtick_5">
     <g id="line2d_13">
      <g>
       <use style="stroke:#000000;stroke-width:0.5;" x="321.84" xlink:href="#m93b0483c22" y="252.0"/>
      </g>
     </g>
     <g id="line2d_14">
      <g>
       <use style="stroke:#000000;stroke-width:0.5;" x="321.84" xlink:href="#m741efc42ff" y="28.8"/>
      </g>
     </g>
     <g id="text_5">
      <!-- 8 -->
      <defs>
       <path d="
M31.7812 34.625
Q24.75 34.625 20.7188 30.8594
Q16.7031 27.0938 16.7031 20.5156
Q16.7031 13.9219 20.7188 10.1562
Q24.75 6.39062 31.7812 6.39062
Q38.8125 6.39062 42.8594 10.1719
Q46.9219 13.9688 46.9219 20.5156
Q46.9219 27.0938 42.8906 30.8594
Q38.875 34.625 31.7812 34.625
M21.9219 38.8125
Q15.5781 40.375 12.0312 44.7188
Q8.5 49.0781 8.5 55.3281
Q8.5 64.0625 14.7188 69.1406
Q20.9531 74.2188 31.7812 74.2188
Q42.6719 74.2188 48.875 69.1406
Q55.0781 64.0625 55.0781 55.3281
Q55.0781 49.0781 51.5312 44.7188
Q48 40.375 41.7031 38.8125
Q48.8281 37.1562 52.7969 32.3125
Q56.7812 27.4844 56.7812 20.5156
Q56.7812 9.90625 50.3125 4.23438
Q43.8438 -1.42188 31.7812 -1.42188
Q19.7344 -1.42188 13.25 4.23438
Q6.78125 9.90625 6.78125 20.5156
Q6.78125 27.4844 10.7812 32.3125
Q14.7969 37.1562 21.9219 38.8125
M18.3125 54.3906
Q18.3125 48.7344 21.8438 45.5625
Q25.3906 42.3906 31.7812 42.3906
Q38.1406 42.3906 41.7188 45.5625
Q45.3125 48.7344 45.3125 54.3906
Q45.3125 60.0625 41.7188 63.2344
Q38.1406 66.4062 31.7812 66.4062
Q25.3906 66.4062 21.8438 63.2344
Q18.3125 60.0625 18.3125 54.3906" id="BitstreamVeraSans-Roman-38"/>
      </defs>
      <g transform="translate(319.34 263.5984375)scale(0.1 -0.1)">
       <use xlink:href="#BitstreamVeraSans-Roman-38"/>
      </g>
     </g>
    </g>
    <g id="xtick_6">
     <g id="line2d_15">
      <g>
       <use style="stroke:#000000;stroke-width:0.5;" x="388.8" xlink:href="#m93b0483c22" y="252.0"/>
      </g>
     </g>
     <g id="line2d_16">
      <g>
       <use style="stroke:#000000;stroke-width:0.5;" x="388.8" xlink:href="#m741efc42ff" y="28.8"/>
      </g>
     </g>
     <g id="text_6">
      <!-- 10 -->
      <defs>
       <path d="
M12.4062 8.29688
L28.5156 8.29688
L28.5156 63.9219
L10.9844 60.4062
L10.9844 69.3906
L28.4219 72.9062
L38.2812 72.9062
L38.2812 8.29688
L54.3906 8.29688
L54.3906 0
L12.4062 0
z
" id="BitstreamVeraSans-Roman-31"/>
      </defs>
      <g transform="translate(383.31875 263.5984375)scale(0.1 -0.1)">
       <use xlink:href="#BitstreamVeraSans-Roman-31"/>
       <use x="63.623046875" xlink:href="#BitstreamVeraSans-Roman-30"/>
      </g>
     </g>
    </g>
   </g>
   <g id="matplotlib.axis_2">
    <g id="ytick_1">
     <g id="line2d_17">
      <defs>
       <path d="
M0 0
L4 0" id="m728421d6d4" style="stroke:#000000;stroke-width:0.5;"/>
      </defs>
      <g>
       <use style="stroke:#000000;stroke-width:0.5;" x="54.0" xlink:href="#m728421d6d4" y="252.0"/>
      </g>
     </g>
     <g id="line2d_18">
      <defs>
       <path d="
M0 0
L-4 0" id="mcb0005524f" style="stroke:#000000;stroke-width:0.5;"/>
      </defs>
      <g>
       <use style="stroke:#000000;stroke-width:0.5;" x="388.8" xlink:href="#mcb0005524f" y="252.0"/>
      </g>
     </g>
     <g id="text_7">
      <!-- 0 -->
      <g transform="translate(44.9609375 254.759375)scale(0.1 -0.1)">
       <use xlink:href="#BitstreamVeraSans-Roman-30"/>
      </g>
     </g>
    </g>
    <g id="ytick_2">
     <g id="line2d_19">
      <g>
       <use style="stroke:#000000;stroke-width:0.5;" x="54.0" xlink:href="#m728421d6d4" y="214.8"/>
      </g>
     </g>
     <g id="line2d_20">
      <g>
       <use style="stroke:#000000;stroke-width:0.5;" x="388.8" xlink:href="#mcb0005524f" y="214.8"/>
      </g>
     </g>
     <g id="text_8">
      <!-- 2 -->
      <g transform="translate(45.371875 217.559375)scale(0.1 -0.1)">
       <use xlink:href="#BitstreamVeraSans-Roman-32"/>
      </g>
     </g>
    </g>
    <g id="ytick_3">
     <g id="line2d_21">
      <g>
       <use style="stroke:#000000;stroke-width:0.5;" x="54.0" xlink:href="#m728421d6d4" y="177.6"/>
      </g>
     </g>
     <g id="line2d_22">
      <g>
       <use style="stroke:#000000;stroke-width:0.5;" x="388.8" xlink:href="#mcb0005524f" y="177.6"/>
      </g>
     </g>
     <g id="text_9">
      <!-- 4 -->
      <g transform="translate(44.6875 180.359375)scale(0.1 -0.1)">
       <use xlink:href="#BitstreamVeraSans-Roman-34"/>
      </g>
     </g>
    </g>
    <g id="ytick_4">
     <g id="line2d_23">
      <g>
       <use style="stroke:#000000;stroke-width:0.5;" x="54.0" xlink:href="#m728421d6d4" y="140.4"/>
      </g>
     </g>
     <g id="line2d_24">
      <g>
       <use style="stroke:#000000;stroke-width:0.5;" x="388.8" xlink:href="#mcb0005524f" y="140.4"/>
      </g>
     </g>
     <g id="text_10">
      <!-- 6 -->
      <g transform="translate(44.965625 143.159375)scale(0.1 -0.1)">
       <use xlink:href="#BitstreamVeraSans-Roman-36"/>
      </g>
     </g>
    </g>
    <g id="ytick_5">
     <g id="line2d_25">
      <g>
       <use style="stroke:#000000;stroke-width:0.5;" x="54.0" xlink:href="#m728421d6d4" y="103.2"/>
      </g>
     </g>
     <g id="line2d_26">
      <g>
       <use style="stroke:#000000;stroke-width:0.5;" x="388.8" xlink:href="#mcb0005524f" y="103.2"/>
      </g>
     </g>
     <g id="text_11">
      <!-- 8 -->
      <g transform="translate(45.0 105.959375)scale(0.1 -0.1)">
       <use xlink:href="#BitstreamVeraSans-Roman-38"/>
      </g>
     </g>
    </g>
    <g id="ytick_6">
     <g id="line2d_27">
      <g>
       <use style="stroke:#000000;stroke-width:0.5;" x="54.0" xlink:href="#m728421d6d4" y="66.0"/>
      </g>
     </g>
     <g id="line2d_28">
      <g>
       <use style="stroke:#000000;stroke-width:0.5;" x="388.8" xlink:href="#mcb0005524f" y="66.0"/>
      </g>
     </g>
     <g id="text_12">
      <!-- 10 -->
      <g transform="translate(39.0375 68.759375)scale(0.1 -0.1)">
       <use xlink:href="#BitstreamVeraSans-Roman-31"/>
       <use x="63.623046875" xlink:href="#BitstreamVeraSans-Roman-30"/>
      </g>
     </g>
    </g>
    <g id="ytick_7">
     <g id="line2d_29">
      <g>
       <use style="stroke:#000000;stroke-width:0.5;" x="54.0" xlink:href="#m728421d6d4" y="28.8"/>
      </g>
     </g>
     <g id="line2d_30">
      <g>
       <use style="stroke:#000000;stroke-width:0.5;" x="388.8" xlink:href="#mcb0005524f" y="28.8"/>
      </g>
     </g>
     <g id="text_13">
      <!-- 12 -->
      <g transform="translate(39.375 31.559375)scale(0.1 -0.1)">
       <use xlink:href="#BitstreamVeraSans-Roman-31"/>
       <use x="63.623046875" xlink:href="#BitstreamVeraSans-Roman-32"/>
      </g>
     </g>
    </g>
   </g>
   <g id="legend_1">
    <g id="patch_7">
     <path d="
M316.209 114.4
L382.8 114.4
L382.8 34.8
L316.209 34.8
z
" style="fill:#ffffff;stroke:#000000;stroke-linejoin:miter;"/>
    </g>
    <g id="line2d_31">
     <path d="
M324.609 45.4
L341.409 45.4" style="fill:none;stroke:#0000ff;stroke-linecap:square;"/>
    </g>
    <g id="line2d_32"/>
    <g id="text_14">
     <!-- n=1 -->
     <defs>
      <path d="
M54.8906 33.0156
L54.8906 0
L45.9062 0
L45.9062 32.7188
Q45.9062 40.4844 42.875 44.3281
Q39.8438 48.1875 33.7969 48.1875
Q26.5156 48.1875 22.3125 43.5469
Q18.1094 38.9219 18.1094 30.9062
L18.1094 0
L9.07812 0
L9.07812 54.6875
L18.1094 54.6875
L18.1094 46.1875
Q21.3438 51.125 25.7031 53.5625
Q30.0781 56 35.7969 56
Q45.2188 56 50.0469 50.1719
Q54.8906 44.3438 54.8906 33.0156" id="BitstreamVeraSans-Roman-6e"/>
      <path d="
M10.5938 45.4062
L73.1875 45.4062
L73.1875 37.2031
L10.5938 37.2031
z

M10.5938 25.4844
L73.1875 25.4844
L73.1875 17.1875
L10.5938 17.1875
z
" id="BitstreamVeraSans-Roman-3d"/>
     </defs>
     <g transform="translate(354.609375 49.6)scale(0.12 -0.12)">
      <use xlink:href="#BitstreamVeraSans-Roman-6e"/>
      <use x="63.37890625" xlink:href="#BitstreamVeraSans-Roman-3d"/>
      <use x="147.16796875" xlink:href="#BitstreamVeraSans-Roman-31"/>
     </g>
    </g>
    <g id="line2d_33">
     <path d="
M324.609 64.4
L341.409 64.4" style="fill:none;stroke:#008000;stroke-linecap:square;"/>
    </g>
    <g id="line2d_34"/>
    <g id="text_15">
     <!-- n=2 -->
     <g transform="translate(354.609375 68.6)scale(0.12 -0.12)">
      <use xlink:href="#BitstreamVeraSans-Roman-6e"/>
      <use x="63.37890625" xlink:href="#BitstreamVeraSans-Roman-3d"/>
      <use x="147.16796875" xlink:href="#BitstreamVeraSans-Roman-32"/>
     </g>
    </g>
    <g id="line2d_35">
     <path d="
M324.609 83.4
L341.409 83.4" style="fill:none;stroke:#ff0000;stroke-linecap:square;"/>
    </g>
    <g id="line2d_36"/>
    <g id="text_16">
     <!-- n=3 -->
     <defs>
      <path d="
M40.5781 39.3125
Q47.6562 37.7969 51.625 33
Q55.6094 28.2188 55.6094 21.1875
Q55.6094 10.4062 48.1875 4.48438
Q40.7656 -1.42188 27.0938 -1.42188
Q22.5156 -1.42188 17.6562 -0.515625
Q12.7969 0.390625 7.625 2.20312
L7.625 11.7188
Q11.7188 9.32812 16.5938 8.10938
Q21.4844 6.89062 26.8125 6.89062
Q36.0781 6.89062 40.9375 10.5469
Q45.7969 14.2031 45.7969 21.1875
Q45.7969 27.6406 41.2812 31.2656
Q36.7656 34.9062 28.7188 34.9062
L20.2188 34.9062
L20.2188 43.0156
L29.1094 43.0156
Q36.375 43.0156 40.2344 45.9219
Q44.0938 48.8281 44.0938 54.2969
Q44.0938 59.9062 40.1094 62.9062
Q36.1406 65.9219 28.7188 65.9219
Q24.6562 65.9219 20.0156 65.0312
Q15.375 64.1562 9.8125 62.3125
L9.8125 71.0938
Q15.4375 72.6562 20.3438 73.4375
Q25.25 74.2188 29.5938 74.2188
Q40.8281 74.2188 47.3594 69.1094
Q53.9062 64.0156 53.9062 55.3281
Q53.9062 49.2656 50.4375 45.0938
Q46.9688 40.9219 40.5781 39.3125" id="BitstreamVeraSans-Roman-33"/>
     </defs>
     <g transform="translate(354.609375 87.6)scale(0.12 -0.12)">
      <use xlink:href="#BitstreamVeraSans-Roman-6e"/>
      <use x="63.37890625" xlink:href="#BitstreamVeraSans-Roman-3d"/>
      <use x="147.16796875" xlink:href="#BitstreamVeraSans-Roman-33"/>
     </g>
    </g>
    <g id="line2d_37">
     <path d="
M324.609 102.4
L341.409 102.4" style="fill:none;stroke:#00bfbf;stroke-linecap:square;"/>
    </g>
    <g id="line2d_38"/>
    <g id="text_17">
     <!-- n=4 -->
     <g transform="translate(354.609375 106.6)scale(0.12 -0.12)">
      <use xlink:href="#BitstreamVeraSans-Roman-6e"/>
      <use x="63.37890625" xlink:href="#BitstreamVeraSans-Roman-3d"/>
      <use x="147.16796875" xlink:href="#BitstreamVeraSans-Roman-34"/>
     </g>
    </g>
   </g>
  </g>
 </g>
 <defs>
  <clipPath id="p124b8dd147">
   <rect height="223.2" width="334.8" x="54.0" y="28.8"/>
  </clipPath>
 </defs>
</svg>
